<?xml version="1.0" encoding="UTF-8"?>
<svg id="Camada_2" data-name="Camada 2" xmlns="http://www.w3.org/2000/svg" viewBox="0 0 210.94 96.48">
  <defs>
    <style>
      .cls-1 {
        fill: #f55210;
        stroke: #1d1d1b;
        stroke-width: .25px;
      }

      .cls-1, .cls-2 {
        stroke-linecap: round;
        stroke-miterlimit: 10;
      }

      .cls-2 {
        fill: none;
        stroke: #616160;
        stroke-width: 5px;
      }
    </style>
  </defs>
  <g id="Camada_1-2" data-name="Camada 1">
    <g id="PRINT">
      <path class="cls-1" d="M11.55.13l146.91.13s11.92.93,18.02,13.33l6.1,12.4,9.84,17.68,14.01,26.88,3.1,6.14s4.45,10.16-3.18,15.41-12.82,4.09-17.95,4.09-58.09.11-58.09.11H52.66s-5.71.98-10.4-4.21-6.76-5.66-15.86-21.91l-9.1-16.25L5.4,30.08.43,19.77S-2.75,3.39,11.55.13Z"/>
      <g>
        <path class="cls-2" d="M74.56,41.77v-8.45c0-3.96,3.21-7.17,7.17-7.17h14.02"/>
        <path class="cls-2" d="M95.76,70.11h-14.02c-3.96,0-7.17-3.21-7.17-7.17v-8.09"/>
        <path class="cls-2" d="M137.04,54.85v8.09c0,3.96-3.21,7.17-7.17,7.17h-15.05"/>
        <path class="cls-2" d="M114.82,26.15h15.05c3.96,0,7.17,3.21,7.17,7.17v8.45"/>
      </g>
    </g>
  </g>
</svg>